<svg xmlns="http://www.w3.org/2000/svg" viewBox="-64 -64 128 128" stroke-width="2">
<style>
	.left {
		transform: skewY(-30deg);
		transform-origin: -32px 0px;
	}
	.center {
		transform: skewY(30deg);
	}
	.right {
		transform: skewY(-30deg);
		transform-origin: 32px 0px;
	}
</style>
<defs>
<path id="tab" d="M -47,-46 A 16 16 0 0 1 -31,-60 H -1 A 16 16 0 0 1 15,-46 Z" />
<path id="page" d="M -61,61 V -47 H 47 Z" />
<path id="tabAndPage" d="M -61,61 V -47 H -47 A 16 16 0 0 1 -31,-61 H -1 A 16 16 0 0 1 15,-47 H 47 Z" />
<linearGradient id="lowerPageGradient" gradientTransform="rotate(45)">
	<stop offset="65%" stop-color="rgb(40%,40%,40%)" />
	<stop offset="70%" stop-color="rgb(0%,0%,0%)" />
</linearGradient>
<filter id="shadow">
	<feDropShadow dx="2" dy="2" stdDeviation="1" />
</filter>
<filter id="flagShadow">
	<feGaussianBlur stdDeviation="1" />
</filter>
</defs>
<g transform="rotate(180)">
<use href="#page" fill="url('#lowerPageGradient')" />
<use href="#tab" fill="rgb(43%,43%,40%)" />
<use href="#tabAndPage" fill="none" stroke="rgb(10%,10%,20%)" />
</g>
<use href="#page" fill="rgb(90%,90%,90%)" />
<use href="#tab" fill="rgb(93%,93%,90%)" />
<use href="#tabAndPage" fill="none" stroke="rgb(10%,30%,60%)" />
<g filter="url(#shadow)">
<rect class="left" width="32" height="64" x="-48" y="-32" fill="rgb(60%,80%,40%)" />
<rect class="center" width="32" height="64" x="-16" y="-32" fill="rgb(80%,100%,60%)" />
<rect class="right" width="32" height="64" x="16" y="-32" fill="rgb(60%,80%,40%)" />
</g>
<path class="left" d="
	M -53 -25
	h 8
	a 3 3 0 0 0 6 0
	h 24
	a 3 3 0 0 0 6 0
	h 8
	v 8 a 8 8 0 0 0 0 16 v 8
	h -8
	a 3 3 0 0 0 -6 0
	h -24
	a 3 3 0 0 0 -6 0
	h -8
	v -8 a 8 8 0 0 0 0 -16
	z
" fill="rgb(100%,70%,0%)" stroke="rgb(70%,40%,0%)" />
<path class="right" d="M 1 -7 h 52 l -16,16 l 16,16 h -52 z" fill="rgb(100%,20%,20%)" stroke="rgb(70%,0%,0%)" />
<g filter="url(#flagShadow)">
<path class="right" d="M 1 34 h 52" stroke="black" stroke-linecap="round" />
</g>
<path d="M 1 8 v 44" stroke="rgb(50%,20%,0%)" stroke-linecap="round" />
</svg>
