<svg xmlns="http://www.w3.org/2000/svg" viewBox="-64 -64 128 128" stroke-width="2">
<style>
	.left {
		transform: skewY(-30deg);
		transform-origin: -32px 0px;
	}
	.center {
		transform: skewY(30deg);
	}
	.right {
		transform: skewY(-30deg);
		transform-origin: 32px 0px;
	}
</style>
<defs>
<path id="page" d="M -61,61 V -47 H -47 A 16 16 0 0 1 -31,-61 H -1 A 16 16 0 0 1 15,-47 H 47 Z" />
</defs>
<use href="#page" fill="rgb(40%,40%,40%)" stroke="rgb(10%,10%,20%)" transform="rotate(180)" />
<use href="#page" fill="rgb(90%,90%,90%)" stroke="rgb(20%,20%,40%)" />
<rect class="left" width="32" height="64" x="-48" y="-32" fill="rgb(60%,80%,40%)" />
<rect class="center" width="32" height="64" x="-16" y="-32" fill="rgb(80%,100%,60%)" />
<rect class="right" width="32" height="64" x="16" y="-32" fill="rgb(60%,80%,40%)" />
<path class="left" d="M -53 -25 h 52 v 8 a 8 8 0 0 0 0 16 v 8 h -52 v -8 a 8 8 0 0 0 0 -16 z" fill="rgb(100%,70%,0%)" stroke="rgb(70%,40%,0%)" />
<path class="right" d="M 1 -7 h 52 l -16,16 l 16,16 h -52 z" fill="rgb(100%,20%,20%)" stroke="rgb(70%,0%,0%)" />
<path d="M 1 8 v 44" stroke="rgb(50%,20%,0%)" stroke-linecap="round" />
</svg>
